<svg xmlns="http://www.w3.org/2000/svg" width="500" height="500" style="width:100%;height:100%;transform:translate3d(0,0,0);content-visibility:visible" viewBox="0 0 500 500"><defs><clipPath id="a"><path d="M0 0h500v500H0z"/></clipPath><clipPath id="c"><path d="M0 0h500v500H0z"/></clipPath><clipPath id="b"><path d="M0 0h500v500H0z"/></clipPath></defs><g clip-path="url(#a)"><g fill="none" clip-path="url(#b)" opacity="0" style="display:block"><g stroke-linecap="round" stroke-linejoin="round" stroke-width="12.25" opacity="1" style="display:block"><path stroke="#121331" d="M370.886 337.37c-37.26 17.935-79.105 27.76-123.257 27.281-44.152-.479-85.74-11.216-122.602-29.956" opacity="1"/><path stroke="#08A88A" d="M239.864 225.787c-10.25-5.223-14.328-17.765-9.105-28.016 5.223-10.25 17.768-14.327 28.019-9.104 10.25 5.223 14.324 17.767 9.1 28.017-5.222 10.251-17.763 14.326-28.014 9.103zm-43.015 84.146c-10.251-5.223-14.324-17.767-9.101-28.018 5.223-10.25 17.763-14.325 28.014-9.102 10.25 5.223 14.325 17.764 9.102 28.014-5.223 10.25-17.765 14.329-28.015 9.106zm85.001-3.501c-10.25-5.223-14.325-17.764-9.102-28.015 5.223-10.25 17.763-14.325 28.014-9.102 10.25 5.223 14.325 17.764 9.102 28.014-5.223 10.25-17.763 14.326-28.014 9.103z" opacity="1"/><path stroke="#121331" d="m389.449 376.089-18.56-38.718L250.652 86.822 124.767 335.227l-19.14 37.774c42.535 21.637 90.583 34.02 141.535 34.575 50.953.554 99.258-10.811 142.287-31.487z" opacity="1"/></g><path style="display:none"/></g><g fill="none" clip-path="url(#c)" style="display:block"><path stroke="#121331" stroke-linecap="round" stroke-linejoin="round" stroke-width="3.5" d="M2.278-38.718c9.399 7.159 17.328 16.537 22.933 27.839s8.266 23.282 8.277 35.097" style="display:block" transform="rotate(117 44.538 212.124) scale(3.5)"/><path stroke="#121331" stroke-linecap="round" stroke-linejoin="round" stroke-width="3.5" d="M45.756 24.188c-.009-13.635-3.089-27.473-9.557-40.516S20.572-40.194 9.727-48.466l-7.449 9.747-48.187 63.108" style="display:block" transform="rotate(117 44.538 212.124) scale(3.5)"/><path stroke="#08A88A" stroke-linecap="round" stroke-linejoin="round" stroke-width="3.5" d="M5.951-12.039a5.95 5.95 0 1 1-11.902 0 5.95 5.95 0 1 1 11.902 0z" style="display:block" transform="rotate(117 44.537 212.123) scale(3.5)"/><path stroke="#08A88A" stroke-linecap="round" stroke-linejoin="round" stroke-width="3.5" d="M17.808 9.101a5.95 5.95 0 1 1-11.902 0 5.951 5.951 0 1 1 11.902 0z" style="display:block" transform="rotate(117 44.538 212.125) scale(3.5)"/><path stroke="#08A88A" stroke-linecap="round" stroke-linejoin="round" stroke-width="3.5" d="M-9.144 9.101a5.95 5.95 0 1 1-11.902 0 5.951 5.951 0 1 1 11.902 0z" style="display:block" transform="rotate(117 44.539 212.125) scale(3.5)"/><path style="display:none"/><path style="display:none"/><path stroke="#121331" stroke-linecap="round" stroke-linejoin="round" stroke-width="12" d="m145.5 84.69-319.764.379" style="display:block" transform="rotate(117 37.344 216.122)"/></g><path style="display:none"/></g></svg>